<?xml version="1.0" encoding="UTF-8" standalone="no"?>
<!-- Uploaded to: SVG Repo, www.svgrepo.com, Generator: SVG Repo Mixer Tools -->

<svg
   version="1.1"
   id="Icons"
   viewBox="0 0 512 512"
   xml:space="preserve"
   sodipodi:docname="icon.svg"
   width="512"
   height="512"
   inkscape:version="1.3.2 (091e20e, 2023-11-25)"
   xmlns:inkscape="http://www.inkscape.org/namespaces/inkscape"
   xmlns:sodipodi="http://sodipodi.sourceforge.net/DTD/sodipodi-0.dtd"
   xmlns:xlink="http://www.w3.org/1999/xlink"
   xmlns="http://www.w3.org/2000/svg"
   xmlns:svg="http://www.w3.org/2000/svg"><defs
   id="defs1"><linearGradient
     id="linearGradient1"
     inkscape:collect="always"
     inkscape:label="nix-gradient"><stop
       style="stop-color:#8ab6de;stop-opacity:1;"
       offset="0.47764745"
       id="stop1" /><stop
       style="stop-color:#5772ff;stop-opacity:1;"
       offset="1"
       id="stop2" /></linearGradient><linearGradient
     inkscape:collect="always"
     xlink:href="#linearGradient1"
     id="linearGradient2"
     x1="2.0003951"
     y1="2.5381339"
     x2="30.199841"
     y2="29.425556"
     gradientUnits="userSpaceOnUse"
     gradientTransform="matrix(12.411347,0,0,13.017132,56.177302,47.97097)"
     spreadMethod="repeat" /></defs><sodipodi:namedview
   id="namedview1"
   pagecolor="#ffffff"
   bordercolor="#000000"
   borderopacity="0.25"
   inkscape:showpageshadow="2"
   inkscape:pageopacity="0.0"
   inkscape:pagecheckerboard="0"
   inkscape:deskcolor="#d1d1d1"
   inkscape:zoom="1.3734276"
   inkscape:cx="215.88323"
   inkscape:cy="283.23298"
   inkscape:window-width="1512"
   inkscape:window-height="917"
   inkscape:window-x="0"
   inkscape:window-y="65"
   inkscape:window-maximized="0"
   inkscape:current-layer="Icons" />
<style
   type="text/css"
   id="style1">
	.st0{fill:none;stroke:#000000;stroke-width:2;stroke-linecap:round;stroke-linejoin:round;stroke-miterlimit:10;}
</style>

<rect
   style="fill:#f6f6f6;fill-opacity:1;fill-rule:nonzero;stroke:none;stroke-opacity:1;paint-order:fill markers stroke"
   id="box"
   width="412"
   height="412"
   x="50"
   y="50"
   inkscape:label="box"
   rx="84"
   ry="84"
   sodipodi:insensitive="true" /><path
   d="m 423.55318,213.2885 c -1.24114,-6.50858 -7.44681,-10.41371 -13.65247,-10.41371 -14.89361,2.60343 -29.78724,-5.20684 -37.23405,-19.52569 -7.4468,-13.01714 -6.20568,-31.24111 2.48227,-42.95654 3.72341,-5.20684 3.72341,-13.01713 -1.24113,-16.92227 -19.85816,-19.5257 -43.43972,-33.844532 -69.50356,-41.654812 -6.20566,-1.30172 -12.41135,1.3017 -14.89362,7.81028 -6.20567,14.318832 -19.85816,23.430842 -34.75177,23.430842 -14.89362,0 -28.5461,-9.11201 -34.75176,-23.430842 -2.48229,-6.50858 -8.68795,-10.41371 -14.89362,-7.81028 -26.06384,7.81028 -49.64539,22.129112 -69.50355,42.956522 -4.96454,3.90515 -4.96454,11.71542 -1.24114,16.92228 8.68795,13.01713 9.92908,29.93939 2.48227,42.95653 -7.44681,13.01714 -22.34043,20.82741 -37.23402,19.52569 -6.20569,-1.30171 -12.41135,3.90514 -13.65249,10.41369 C 82.24112,227.60735 81,241.9262 81,256.24502 c 0,14.31885 1.24112,28.6377 4.96454,42.95653 1.24114,6.50856 7.4468,10.41371 13.65248,9.112 14.8936,-2.60344 29.78722,5.20685 37.23403,19.52569 7.44682,13.01713 6.20568,31.24111 -2.48227,42.95652 -3.72339,5.20686 -3.72339,13.01713 1.24115,16.92227 19.85815,19.5257 44.68085,35.14627 70.74467,42.95654 6.20569,1.30172 12.41135,-1.30172 14.89362,-7.81027 6.20567,-14.31885 19.85816,-23.43084 34.75177,-23.43084 14.89362,0 28.5461,9.11199 34.75178,23.43084 2.48227,5.20684 6.20567,7.81027 11.1702,7.81027 1.24114,0 2.48227,0 3.72341,0 26.06383,-7.81027 50.88653,-23.43084 70.74469,-42.95654 4.96454,-5.20684 4.96454,-11.71541 1.24112,-16.92227 -8.68794,-13.01713 -9.92906,-29.93939 -2.48226,-42.95652 7.4468,-13.01713 22.34041,-20.82742 37.23405,-19.52569 6.20566,1.30171 12.41133,-3.90516 13.65248,-10.41371 C 429.75885,283.58099 431,269.26215 431,254.9433 c 0,-14.31882 -3.72342,-27.33595 -7.44682,-41.6548 z m -222.16311,72.89593 c 4.96453,5.20685 4.96453,13.01712 0,18.22396 -2.48227,2.60343 -4.96454,3.90516 -8.68796,3.90516 -3.72339,0 -6.20567,-1.30173 -8.68794,-3.90516 l -37.23404,-39.05137 c -4.96454,-5.20686 -4.96454,-13.01713 0,-18.22399 l 37.23404,-39.05139 c 4.96455,-5.20685 12.41136,-5.20685 17.3759,0 4.96453,5.20686 4.96453,13.01713 0,18.22399 l -28.5461,29.93939 z m 89.36169,-76.80107 -49.64538,104.13704 c -2.48228,5.20684 -6.20568,7.81027 -11.17021,7.81027 -2.48228,0 -3.72342,0 -4.96455,-1.30171 -6.20567,-2.60342 -8.68794,-10.4137 -4.96454,-16.92226 l 49.64538,-104.13704 c 2.48228,-6.50858 9.92909,-9.11201 16.13476,-5.20687 4.96454,2.60344 7.44682,10.41371 4.96454,15.62057 z m 71.98583,55.97366 -37.23405,39.05137 c -2.48227,2.60343 -4.96454,3.90516 -8.68795,3.90516 -3.7234,0 -6.20567,-1.30173 -8.68794,-3.90516 -4.96454,-5.20684 -4.96454,-13.01711 0,-18.22396 l 28.5461,-29.93941 -28.5461,-29.93939 c -4.96454,-5.20686 -4.96454,-13.01713 0,-18.22399 4.96454,-5.20685 12.41135,-5.20685 17.37589,0 l 37.23405,39.05139 c 4.96454,5.20686 4.96454,13.01713 0,18.22399 z"
   id="logo"
   style="fill:url(#linearGradient2);fill-rule:nonzero;stroke-width:12.7107"
   inkscape:label="logo"
   sodipodi:insensitive="true" /></svg>
